<svg xmlns="http://www.w3.org/2000/svg" width="25.143" height="16" viewBox="0 0 25.143 16"><defs><style>.a{fill:#d2d2d2;}</style></defs><path class="a" d="M18.143,11.857a3.429,3.429,0,1,0-3.429-3.429A3.414,3.414,0,0,0,18.143,11.857ZM9,11.857A3.429,3.429,0,1,0,5.571,8.429,3.414,3.414,0,0,0,9,11.857Zm0,2.286c-2.663,0-8,1.337-8,4V21H17V18.143C17,15.48,11.663,14.143,9,14.143Zm9.143,0c-.331,0-.709.023-1.109.057a4.823,4.823,0,0,1,2.251,3.943V21h6.857V18.143C26.143,15.48,20.806,14.143,18.143,14.143Z" transform="translate(-1 -5)"/></svg>