<svg xmlns="http://www.w3.org/2000/svg" width="1770.187" height="570.92" viewBox="0 0 1770.187 570.92">
    <defs>
        <style>.a,.b,.c{fill:#7dd9af;}.a{font-size:132px;font-family:LeelawadeeUI, Leelawadee
            UI;letter-spacing:0.38em;}.b{font-size:283px;font-family:LeelawadeeUI-Bold, Leelawadee UI;font-weight:700;}
        </style>
    </defs>
    <g transform="translate(0 395.92)">
        <text class="a" transform="translate(0 142)">
            <tspan x="0" y="0">new volunteering</tspan>
        </text>
    </g>
    <g transform="translate(4.634)">
        <text class="b" transform="translate(493.553 305)">
            <tspan x="0" y="0">purpozed</tspan>
        </text>
    </g>
    <g transform="translate(0.269 9)">
        <path class="c"
              d="M377.05,585.114A145.251,145.251,0,0,1,263.711,531.24c-22.363-27.445-42.185-50.825-58.957-70.138a93.3,93.3,0,0,1-22.363-77.254c4.574-27.954,20.838-52.349,45.742-66.581h0L426.35,201.9c26.937-15.756,59.465-16.772,87.418-4.066a94.242,94.242,0,0,1,52.858,69.63l25.412,154.507a93.815,93.815,0,0,1-49.3,98.6c-25.921,13.723-60.99,30.495-103.682,50.317A141.74,141.74,0,0,1,377.05,585.114Z"
              transform="translate(-181.144 -189.104)"/>
    </g>
</svg>